<svg width="100" height="96" viewBox="0 0 100 96" fill="none" xmlns="http://www.w3.org/2000/svg">
<path d="M26.6 44H36.5293C36.882 44 37.0584 44 37.2147 44.053C37.353 44.1 37.4793 44.1766 37.5847 44.2775C37.704 44.3917 37.7855 44.5481 37.9484 44.8609L41.2183 51.1391C41.3812 51.4519 41.4627 51.6083 41.5819 51.7225C41.6874 51.8234 41.8137 51.9 41.952 51.947C42.1083 52 42.2846 52 42.6373 52H57.3627C57.7154 52 57.8917 52 58.048 51.947C58.1863 51.9 58.3126 51.8234 58.4181 51.7225C58.5373 51.6083 58.6188 51.4519 58.7817 51.1391L62.0516 44.8609L62.0516 44.8608C62.2146 44.5481 62.296 44.3917 62.4153 44.2775C62.5207 44.1766 62.647 44.1 62.7853 44.053C62.9416 44 63.118 44 63.4707 44H73.4C73.9601 44 74.2401 44 74.454 44.109C74.6422 44.2049 74.7951 44.3578 74.891 44.546C75 44.7599 75 45.0399 75 45.6V82.4C75 82.9601 75 83.2401 74.891 83.454C74.7951 83.6422 74.6422 83.7951 74.454 83.891C74.2401 84 73.9601 84 73.4 84H26.6C26.0399 84 25.7599 84 25.546 83.891C25.3578 83.7951 25.2049 83.6422 25.109 83.454C25 83.2401 25 82.9601 25 82.4V45.6C25 45.0399 25 44.7599 25.109 44.546C25.2049 44.3578 25.3578 44.2049 25.546 44.109C25.7599 44 26.0399 44 26.6 44Z" stroke="#931158" stroke-width="2"/>
<path d="M56.7327 64H43.266C42.706 64 42.4259 64 42.212 64.109C42.0239 64.2049 41.8709 64.3578 41.775 64.546C41.666 64.7599 41.666 65.0399 41.666 65.6V70.4C41.666 70.9601 41.666 71.2401 41.775 71.454C41.8709 71.6422 42.0239 71.7951 42.212 71.891C42.4259 72 42.706 72 43.266 72H56.7327C57.2927 72 57.5728 72 57.7867 71.891C57.9748 71.7951 58.1278 71.6422 58.2237 71.454C58.3327 71.2401 58.3327 70.9601 58.3327 70.4V65.6C58.3327 65.0399 58.3327 64.7599 58.2237 64.546C58.1278 64.3578 57.9748 64.2049 57.7867 64.109C57.5728 64 57.2927 64 56.7327 64Z" fill="#931158" stroke="#931158" stroke-width="2"/>
<path d="M29.1667 44H14.1C13.5399 44 13.2599 44 13.046 44.109C12.8578 44.2049 12.7049 44.3578 12.609 44.546C12.5 44.7599 12.5 45.0399 12.5 45.6V82.4C12.5 82.9601 12.5 83.2401 12.609 83.454C12.7049 83.6422 12.8578 83.7951 13.046 83.891C13.2599 84 13.5399 84 14.1 84H85.9C86.46 84 86.7401 84 86.954 83.891C87.1421 83.7951 87.2951 83.6422 87.391 83.454C87.5 83.2401 87.5 82.9601 87.5 82.4V45.6C87.5 45.0399 87.5 44.7599 87.391 44.546C87.2951 44.3578 87.1421 44.2049 86.954 44.109C86.7401 44 86.46 44 85.9 44H70.8333" stroke="#931158" stroke-width="2"/>
<path d="M70.8327 44V22.6819C70.8327 22.4305 70.8327 22.3048 70.8036 22.1868C70.7778 22.0823 70.7353 21.9826 70.6778 21.8916C70.6128 21.7889 70.5221 21.7019 70.3407 21.5277L60.8804 12.4458C60.7089 12.2811 60.6231 12.1988 60.524 12.14C60.4361 12.0878 60.3407 12.0495 60.2412 12.0262C60.129 12 60.0101 12 59.7723 12H31.566C30.7259 12 30.3059 12 29.985 12.1635C29.7028 12.3073 29.4733 12.5368 29.3295 12.819C29.166 13.1399 29.166 13.5599 29.166 14.4V44" stroke="#931158" stroke-width="2"/>
<path d="M54.166 12L54.166 26.4C54.166 26.9601 54.166 27.2401 54.275 27.454C54.3709 27.6422 54.5239 27.7951 54.712 27.891C54.9259 28 55.206 28 55.766 28L70.8327 28" stroke="#931158" stroke-width="2"/>
</svg>
