<svg width="18" height="16" viewBox="0 0 18 16" fill="none" xmlns="http://www.w3.org/2000/svg">
<path d="M9.24731 1.43355L15.2473 3.83354C15.4806 3.92687 15.6673 4.20687 15.6673 4.45353V6.66687C15.6673 7.03354 15.3673 7.33354 15.0007 7.33354H3.00065C2.63398 7.33354 2.33398 7.03354 2.33398 6.66687V4.45353C2.33398 4.20687 2.52065 3.92687 2.75399 3.83354L8.75399 1.43355C8.88732 1.38022 9.11398 1.38022 9.24731 1.43355Z" stroke="#931158" stroke-width="1.5" stroke-miterlimit="10" stroke-linecap="round" stroke-linejoin="round"/>
<path d="M15.6673 14.6667H2.33398V12.6667C2.33398 12.3 2.63398 12 3.00065 12H15.0007C15.3673 12 15.6673 12.3 15.6673 12.6667V14.6667Z" stroke="#931158" stroke-width="1.5" stroke-miterlimit="10" stroke-linecap="round" stroke-linejoin="round"/>
<path opacity="0.4" d="M3.66602 11.9997V7.33301" stroke="#931158" stroke-width="1.5" stroke-miterlimit="10" stroke-linecap="round" stroke-linejoin="round"/>
<path opacity="0.4" d="M6.33398 11.9997V7.33301" stroke="#931158" stroke-width="1.5" stroke-miterlimit="10" stroke-linecap="round" stroke-linejoin="round"/>
<path opacity="0.4" d="M9 11.9997V7.33301" stroke="#931158" stroke-width="1.5" stroke-miterlimit="10" stroke-linecap="round" stroke-linejoin="round"/>
<path opacity="0.4" d="M11.666 11.9997V7.33301" stroke="#931158" stroke-width="1.5" stroke-miterlimit="10" stroke-linecap="round" stroke-linejoin="round"/>
<path opacity="0.4" d="M14.334 11.9997V7.33301" stroke="#931158" stroke-width="1.5" stroke-miterlimit="10" stroke-linecap="round" stroke-linejoin="round"/>
<path d="M1.66602 14.667H16.3327" stroke="#931158" stroke-width="1.5" stroke-miterlimit="10" stroke-linecap="round" stroke-linejoin="round"/>
<path opacity="0.4" d="M9 5.66699C9.55228 5.66699 10 5.21928 10 4.66699C10 4.11471 9.55228 3.66699 9 3.66699C8.44772 3.66699 8 4.11471 8 4.66699C8 5.21928 8.44772 5.66699 9 5.66699Z" stroke="#931158" stroke-width="1.5" stroke-miterlimit="10" stroke-linecap="round" stroke-linejoin="round"/>
</svg>
