<svg width="20" height="20" viewBox="0 0 20 20" fill="none" xmlns="http://www.w3.org/2000/svg">
<circle cx="10" cy="10" r="10" fill="#D9D9D9"/>
<path d="M11.7388 5.63232V5.83008C11.7388 6.08398 11.6094 6.3623 11.3506 6.66504C11.2139 6.82617 11.0088 6.90674 10.7354 6.90674H10.5303C10.457 6.89209 10.374 6.88477 10.2812 6.88477C10.1934 6.88477 10.0786 6.81641 9.93701 6.67969C9.80029 6.53809 9.73193 6.3623 9.73193 6.15234V5.96191C9.74658 5.88867 9.75391 5.83252 9.75391 5.79346C9.75391 5.52002 9.90283 5.27588 10.2007 5.06104C10.3716 4.93896 10.5742 4.87793 10.8086 4.87793H10.9111C11.1406 4.87793 11.3359 4.94629 11.4971 5.08301C11.6582 5.21484 11.7388 5.39795 11.7388 5.63232ZM9.00684 15.0732H8.67725C8.21338 15.0732 7.98145 14.8877 7.98145 14.5166C7.98145 14.1895 8.0791 13.8574 8.27441 13.5205C8.87012 12.4756 9.16797 11.4087 9.16797 10.3198C9.16797 9.9585 9.07275 9.70703 8.88232 9.56543C8.48682 9.26758 8.28906 9.08203 8.28906 9.00879C8.28906 8.80859 8.50635 8.62061 8.94092 8.44482C9.38037 8.26416 9.89795 8.17383 10.4937 8.17383H10.6035C10.8232 8.17383 10.9673 8.21533 11.0356 8.29834C11.1089 8.37646 11.1455 8.49121 11.1455 8.64258C11.1455 8.79395 11.0234 9.52148 10.7793 10.8252C10.5352 12.124 10.4131 12.8857 10.4131 13.1104C10.4131 13.4619 10.5864 13.6548 10.9331 13.689C11.2847 13.7183 11.4604 13.8623 11.4604 14.1211C11.4604 14.3115 11.2993 14.4702 10.9771 14.5972C10.1714 14.9146 9.51465 15.0732 9.00684 15.0732Z" fill="#383838"/>
</svg>
