<svg width="17" height="17" viewBox="0 0 17 17" fill="none" xmlns="http://www.w3.org/2000/svg">
<path opacity="0.4" d="M15.5827 5.34067V11.659C15.5827 13.2811 14.2652 14.5915 12.6431 14.5915H4.3556C2.73352 14.5915 1.41602 13.2811 1.41602 11.659V5.34067C1.41602 3.71859 2.73352 2.4082 4.3556 2.4082H12.6431C14.2652 2.4082 15.5827 3.71859 15.5827 5.34067Z" fill="#931158"/>
<path d="M6.55208 9.03125H3.71875C3.42833 9.03125 3.1875 8.79042 3.1875 8.5C3.1875 8.20958 3.42833 7.96875 3.71875 7.96875H6.55208C6.8425 7.96875 7.08333 8.20958 7.08333 8.5C7.08333 8.79042 6.8425 9.03125 6.55208 9.03125Z" fill="#931158"/>
<path d="M13.2033 8.26624C13.3025 8.0679 13.3663 7.84833 13.3663 7.61458C13.3663 6.85667 12.7075 6.19792 11.9496 6.19792H11.5175V5.84375C11.5175 5.55333 11.2767 5.3125 10.9863 5.3125C10.6958 5.3125 10.455 5.55333 10.455 5.84375V6.19792H9.73958H9.03125C8.74083 6.19792 8.5 6.43875 8.5 6.72917C8.5 7.01958 8.74083 7.26042 9.03125 7.26042H9.20833V8.5V9.73958H9.03125C8.74083 9.73958 8.5 9.98042 8.5 10.2708C8.5 10.5612 8.74083 10.8021 9.03125 10.8021H9.73958H10.455V11.1562C10.455 11.4467 10.6958 11.6875 10.9863 11.6875C11.2767 11.6875 11.5175 11.4467 11.5175 11.1562V10.8021H12.2683C13.1183 10.8021 13.8125 10.1646 13.8125 9.38542C13.8125 8.925 13.5717 8.52832 13.2033 8.26624ZM10.5825 7.26042H11.9567C12.1408 7.26042 12.3108 7.45875 12.3108 7.61458C12.3108 7.81292 12.155 7.96875 11.9567 7.96875H10.2708V7.26042H10.5825ZM12.2683 9.73958H10.5825H10.2708V9.03125H11.9567H12.2754C12.5375 9.03125 12.7571 9.19417 12.7571 9.38542C12.7571 9.57667 12.5304 9.73958 12.2683 9.73958Z" fill="#931158"/>
</svg>
