<svg width="18" height="18" viewBox="0 0 18 18" fill="none" xmlns="http://www.w3.org/2000/svg">
<path d="M4.5 7.5H16.5" stroke="#931158" stroke-width="1.5" stroke-miterlimit="10" stroke-linecap="round" stroke-linejoin="round"/>
<path d="M8.66219 15.3753H4.8297C2.1672 15.3753 1.49219 14.7153 1.49219 12.0828V5.91782C1.49219 3.53282 2.04721 2.76782 4.13971 2.64782C4.34971 2.64032 4.5822 2.63281 4.8297 2.63281H13.1622C15.8247 2.63281 16.4997 3.29281 16.4997 5.92531V9.23281" stroke="#931158" stroke-width="1.5" stroke-linecap="round" stroke-linejoin="round"/>
<path d="M4.5 12H7.5" stroke="#931158" stroke-width="1.5" stroke-miterlimit="10" stroke-linecap="round" stroke-linejoin="round"/>
<path d="M16.5 13.5C16.5 14.0625 16.3425 14.595 16.065 15.045C15.5475 15.915 14.595 16.5 13.5 16.5C12.405 16.5 11.4525 15.915 10.935 15.045C10.6575 14.595 10.5 14.0625 10.5 13.5C10.5 11.8425 11.8425 10.5 13.5 10.5C15.1575 10.5 16.5 11.8425 16.5 13.5Z" stroke="#931158" stroke-width="1.5" stroke-miterlimit="10" stroke-linecap="round" stroke-linejoin="round"/>
<path d="M12.3301 13.4996L13.0726 14.2421L14.6701 12.7646" stroke="#931158" stroke-width="1.5" stroke-linecap="round" stroke-linejoin="round"/>
</svg>
