<svg width="33" height="33" viewBox="0 0 33 33" fill="none" xmlns="http://www.w3.org/2000/svg">
<path d="M17.875 21.9996H9.62501C9.26034 21.9996 8.9106 22.1445 8.65274 22.4023C8.39488 22.6602 8.25001 23.0099 8.25001 23.3746C8.25001 23.7393 8.39488 24.089 8.65274 24.3469C8.9106 24.6047 9.26034 24.7496 9.62501 24.7496H17.875C18.2397 24.7496 18.5894 24.6047 18.8473 24.3469C19.1051 24.089 19.25 23.7393 19.25 23.3746C19.25 23.0099 19.1051 22.6602 18.8473 22.4023C18.5894 22.1445 18.2397 21.9996 17.875 21.9996ZM12.375 13.7496H15.125C15.4897 13.7496 15.8394 13.6047 16.0973 13.3469C16.3551 13.089 16.5 12.7393 16.5 12.3746C16.5 12.0099 16.3551 11.6602 16.0973 11.4023C15.8394 11.1445 15.4897 10.9996 15.125 10.9996H12.375C12.0103 10.9996 11.6606 11.1445 11.4027 11.4023C11.1449 11.6602 11 12.0099 11 12.3746C11 12.7393 11.1449 13.089 11.4027 13.3469C11.6606 13.6047 12.0103 13.7496 12.375 13.7496ZM28.875 16.4996H24.75V4.12461C24.751 3.88232 24.6879 3.64408 24.5672 3.43401C24.4464 3.22394 24.2723 3.0495 24.0625 2.92836C23.8535 2.80767 23.6164 2.74414 23.375 2.74414C23.1336 2.74414 22.8965 2.80767 22.6875 2.92836L18.5625 5.29336L14.4375 2.92836C14.2285 2.80767 13.9914 2.74414 13.75 2.74414C13.5086 2.74414 13.2715 2.80767 13.0625 2.92836L8.93751 5.29336L4.81251 2.92836C4.60348 2.80767 4.36637 2.74414 4.12501 2.74414C3.88365 2.74414 3.64654 2.80767 3.43751 2.92836C3.22768 3.0495 3.05359 3.22394 2.93286 3.43401C2.81213 3.64408 2.74905 3.88232 2.75001 4.12461V26.1246C2.75001 27.2186 3.18461 28.2678 3.9582 29.0414C4.73178 29.815 5.78099 30.2496 6.87501 30.2496H26.125C27.219 30.2496 28.2682 29.815 29.0418 29.0414C29.8154 28.2678 30.25 27.2186 30.25 26.1246V17.8746C30.25 17.5099 30.1051 17.1602 29.8473 16.9023C29.5894 16.6445 29.2397 16.4996 28.875 16.4996ZM6.87501 27.4996C6.51034 27.4996 6.1606 27.3547 5.90274 27.0969C5.64488 26.839 5.50001 26.4893 5.50001 26.1246V6.50336L8.25001 8.07086C8.46223 8.1817 8.69809 8.23958 8.93751 8.23958C9.17693 8.23958 9.4128 8.1817 9.62501 8.07086L13.75 5.70586L17.875 8.07086C18.0872 8.1817 18.3231 8.23958 18.5625 8.23958C18.8019 8.23958 19.0378 8.1817 19.25 8.07086L22 6.50336V26.1246C22.0037 26.5937 22.0874 27.0587 22.2475 27.4996H6.87501ZM27.5 26.1246C27.5 26.4893 27.3551 26.839 27.0973 27.0969C26.8394 27.3547 26.4897 27.4996 26.125 27.4996C25.7603 27.4996 25.4106 27.3547 25.1527 27.0969C24.8949 26.839 24.75 26.4893 24.75 26.1246V19.2496H27.5V26.1246ZM17.875 16.4996H9.62501C9.26034 16.4996 8.9106 16.6445 8.65274 16.9023C8.39488 17.1602 8.25001 17.5099 8.25001 17.8746C8.25001 18.2393 8.39488 18.589 8.65274 18.8469C8.9106 19.1047 9.26034 19.2496 9.62501 19.2496H17.875C18.2397 19.2496 18.5894 19.1047 18.8473 18.8469C19.1051 18.589 19.25 18.2393 19.25 17.8746C19.25 17.5099 19.1051 17.1602 18.8473 16.9023C18.5894 16.6445 18.2397 16.4996 17.875 16.4996Z" fill="black"/>
</svg>
