<svg width="40" height="39" viewBox="0 0 40 39" fill="none" xmlns="http://www.w3.org/2000/svg">
<path d="M21.8559 1.6217C21.1841 -0.0512376 18.8159 -0.0512397 18.1441 1.6217L14.2609 11.2916C13.9748 12.004 13.3062 12.4898 12.5402 12.5417L2.14366 13.2467C0.345005 13.3686 -0.386837 15.621 0.996624 16.7769L8.99328 23.4582C9.58242 23.9504 9.83781 24.7364 9.65051 25.4809L7.10823 35.5865C6.6684 37.3348 8.58438 38.7268 10.1112 37.7683L18.9366 32.2276C19.5868 31.8194 20.4132 31.8194 21.0634 32.2276L29.8888 37.7683C31.4156 38.7268 33.3316 37.3348 32.8918 35.5865L30.3495 25.4809C30.1622 24.7364 30.4176 23.9504 31.0067 23.4582L39.0034 16.7769C40.3868 15.621 39.655 13.3686 37.8563 13.2467L27.4598 12.5417C26.6938 12.4898 26.0252 12.004 25.7391 11.2916L21.8559 1.6217Z" fill="#E7E7E7"/>
</svg>
