<svg width="27" height="27" viewBox="0 0 27 27" fill="none" xmlns="http://www.w3.org/2000/svg">
<path d="M24.75 5.625H2.25C1.95163 5.625 1.66548 5.74353 1.4545 5.9545C1.24353 6.16548 1.125 6.45163 1.125 6.75V11.25C1.12696 11.9463 1.34424 12.625 1.74706 13.1929C2.14987 13.7609 2.71851 14.1904 3.375 14.4225V24.75C3.375 25.0484 3.49353 25.3345 3.7045 25.5455C3.91548 25.7565 4.20163 25.875 4.5 25.875H22.5C22.7984 25.875 23.0845 25.7565 23.2955 25.5455C23.5065 25.3345 23.625 25.0484 23.625 24.75V14.4225C24.2815 14.1904 24.8501 13.7609 25.2529 13.1929C25.6558 12.625 25.873 11.9463 25.875 11.25V6.75C25.875 6.45163 25.7565 6.16548 25.5455 5.9545C25.3345 5.74353 25.0484 5.625 24.75 5.625ZM16.875 7.875H19.125V11.25C19.125 11.5484 19.0065 11.8345 18.7955 12.0455C18.5845 12.2565 18.2984 12.375 18 12.375C17.7016 12.375 17.4155 12.2565 17.2045 12.0455C16.9935 11.8345 16.875 11.5484 16.875 11.25V7.875ZM12.375 7.875H14.625V11.25C14.625 11.5484 14.5065 11.8345 14.2955 12.0455C14.0845 12.2565 13.7984 12.375 13.5 12.375C13.2016 12.375 12.9155 12.2565 12.7045 12.0455C12.4935 11.8345 12.375 11.5484 12.375 11.25V7.875ZM7.875 7.875H10.125V11.25C10.125 11.5484 10.0065 11.8345 9.7955 12.0455C9.58452 12.2565 9.29837 12.375 9 12.375C8.70163 12.375 8.41548 12.2565 8.2045 12.0455C7.99353 11.8345 7.875 11.5484 7.875 11.25V7.875ZM4.5 12.375C4.20163 12.375 3.91548 12.2565 3.7045 12.0455C3.49353 11.8345 3.375 11.5484 3.375 11.25V7.875H5.625V11.25C5.625 11.5484 5.50647 11.8345 5.2955 12.0455C5.08452 12.2565 4.79837 12.375 4.5 12.375ZM15.75 23.625H11.25V21.375C11.25 20.7783 11.4871 20.206 11.909 19.784C12.331 19.3621 12.9033 19.125 13.5 19.125C14.0967 19.125 14.669 19.3621 15.091 19.784C15.5129 20.206 15.75 20.7783 15.75 21.375V23.625ZM21.375 23.625H18V21.375C18 20.1815 17.5259 19.0369 16.682 18.193C15.8381 17.3491 14.6935 16.875 13.5 16.875C12.3065 16.875 11.1619 17.3491 10.318 18.193C9.47411 19.0369 9 20.1815 9 21.375V23.625H5.625V14.4225C6.03818 14.2683 6.41951 14.0395 6.75 13.7475C7.36877 14.3009 8.16983 14.6069 9 14.6069C9.83017 14.6069 10.6312 14.3009 11.25 13.7475C11.8688 14.3009 12.6698 14.6069 13.5 14.6069C14.3302 14.6069 15.1312 14.3009 15.75 13.7475C16.3688 14.3009 17.1698 14.6069 18 14.6069C18.8302 14.6069 19.6312 14.3009 20.25 13.7475C20.5805 14.0395 20.9618 14.2683 21.375 14.4225V23.625ZM23.625 11.25C23.625 11.5484 23.5065 11.8345 23.2955 12.0455C23.0845 12.2565 22.7984 12.375 22.5 12.375C22.2016 12.375 21.9155 12.2565 21.7045 12.0455C21.4935 11.8345 21.375 11.5484 21.375 11.25V7.875H23.625V11.25ZM4.8375 3.375H22.5C22.7984 3.375 23.0845 3.25647 23.2955 3.0455C23.5065 2.83452 23.625 2.54837 23.625 2.25C23.625 1.95163 23.5065 1.66548 23.2955 1.4545C23.0845 1.24353 22.7984 1.125 22.5 1.125H4.8375C4.53913 1.125 4.25298 1.24353 4.042 1.4545C3.83103 1.66548 3.7125 1.95163 3.7125 2.25C3.7125 2.54837 3.83103 2.83452 4.042 3.0455C4.25298 3.25647 4.53913 3.375 4.8375 3.375Z" fill="black"/>
</svg>
