<svg width="29" height="29" viewBox="0 0 29 29" fill="none" xmlns="http://www.w3.org/2000/svg">
<path d="M11.4004 21.9248V19.863L17.6354 19.3691L18.0795 20.1508C18.0795 20.1508 17.2389 21.057 16.2103 21.381C15.4219 21.6302 14.5723 21.671 13.197 21.8205L11.4004 21.9248Z" fill="white"/>
<path d="M11.2559 21.9249L11.265 19.8632L5.03227 19.3398L4.58594 20.1192C4.58594 20.1192 5.42195 21.03 6.45055 21.3585C7.23898 21.61 8.08633 21.6576 9.46156 21.8116L11.2559 21.9249Z" fill="white"/>
<path d="M26.4806 27.7536C26.4806 26.2221 25.6016 23.2224 23.8185 22.1553L23.5625 28.0889H26.501L26.4806 27.7536Z" fill="white"/>
<path d="M11.3553 21.6914H11.3281C6.21914 21.6982 0.90625 23.3408 0.90625 27.3691V28.0895H21.75V27.3691C21.75 23.5741 16.487 21.6914 11.3553 21.6914Z" fill="white"/>
<path d="M26.7256 12.4108L24.2085 12.3383C23.2569 12.3179 22.4707 13.1063 22.4526 14.1032L22.3076 22.341L23.1686 22.3614L23.3136 14.1236C23.3226 13.6274 23.7168 13.2309 24.1904 13.24L26.7075 13.3125L26.7256 12.4108Z" fill="white"/>
<path d="M24.1605 13.6258L23.8229 13.6213C23.5715 13.6168 23.3698 13.4015 23.3721 13.1387L23.3766 12.638C23.3789 12.3752 23.5851 12.1645 23.8365 12.169L24.1741 12.1735C24.4256 12.1781 24.6272 12.3933 24.625 12.6561L24.6204 13.1568C24.6182 13.4196 24.412 13.6281 24.1605 13.6258Z" fill="white"/>
<path d="M23.3567 27.8631L23.4451 20.4342C23.4473 20.1963 23.1437 19.9992 22.7654 19.9924C22.387 19.9856 22.0789 20.1759 22.0766 20.4138L21.9883 27.8609H23.3567V27.8631Z" fill="white"/>
<path d="M23.7365 28.0893L23.8068 21.5281C23.8113 21.1021 23.5054 20.7532 23.1248 20.7464L22.3862 20.7373C22.0056 20.7328 21.6907 21.0727 21.6884 21.4986L21.6182 28.087L23.7365 28.0893Z" fill="white"/>
<path d="M25.4884 13.931C24.8699 13.931 24.2061 13.5413 24.2061 12.6872C24.2061 11.7492 24.9288 11.5 25.357 11.5C26.3765 11.5 27.4346 12.3564 27.8152 12.6963C27.4232 13.0406 26.3335 13.931 25.4884 13.931Z" fill="white"/>
<path d="M25.3569 11.6879C26.1929 11.6879 27.0765 12.32 27.5251 12.6961C27.0085 13.1289 26.134 13.7429 25.4883 13.7429C25.0827 13.7429 24.3963 13.5208 24.3963 12.6871C24.3963 11.8986 24.9989 11.6879 25.3569 11.6879ZM25.3569 11.3096C24.7769 11.3096 24.0156 11.6879 24.0156 12.6871C24.0156 13.6862 24.8086 14.1212 25.4883 14.1212C26.6211 14.1212 28.0938 12.6961 28.0938 12.6961C28.0938 12.6961 26.7162 11.3096 25.3569 11.3096Z" fill="white"/>
<path d="M25.5157 12.1592C26.311 12.4357 26.6984 12.6849 26.6984 12.6849C26.6984 12.6849 26.4446 12.9613 25.6245 13.1403C25.015 13.2739 24.6186 13.0474 24.6231 12.6577C24.6321 12.2703 25.1057 12.0142 25.5157 12.1592Z" fill="white"/>
<path d="M25.7991 24.9306C25.7673 24.6088 25.6563 24.303 25.5498 24.047C25.2168 23.2381 24.8384 22.6083 23.9752 21.9716C23.0984 21.3237 22.1333 21.1945 21.6983 21.267C21.2089 21.3463 20.8962 21.5389 20.7671 21.838C20.6697 22.0668 20.7059 22.2979 20.7648 22.4701C20.5156 22.5562 20.1803 22.7261 20.0738 23.032C19.9469 23.3899 20.0489 23.6799 20.1962 23.8793C19.9832 24.0152 19.7181 24.2305 19.6411 24.5001C19.5391 24.8603 19.8699 25.2591 20.0919 25.4788C19.9832 25.6238 19.8541 25.8187 19.8246 25.9614C19.6705 26.7227 20.6584 27.1486 21.2655 27.28C21.363 27.3004 21.4604 27.2574 21.5102 27.1713L21.7187 26.8088C22.4958 27.0489 23.6309 27.3706 24.1044 27.3706C24.1701 27.3706 24.2222 27.3638 24.2584 27.3525C24.6957 27.2007 24.9789 26.845 25.2281 26.5324C25.2666 26.4848 25.3051 26.4349 25.3437 26.3874C25.6858 25.975 25.8489 25.4449 25.7991 24.9306Z" fill="white"/>
<path d="M11.9352 28.0893L13.4419 23.6895H8.93555L10.7209 28.0893H11.9352Z" fill="#F8F8F7"/>
<path d="M11.3277 20.9277H9.27051V23.1888C9.27051 24.2106 10.1088 25.0398 11.1419 25.0398H11.5157C12.5489 25.0398 13.3871 24.2106 13.3871 23.1888V20.9277H11.3277Z" fill="white"/>
<path d="M8.09063 24.5684C8.16539 24.5684 8.23789 24.6046 8.2832 24.6704L10.5896 28.0892H10.721L9.27102 21.7432L7.57859 22.0037L6.01758 25.3682L8.00453 24.5843C8.03399 24.5729 8.06117 24.5684 8.09063 24.5684Z" fill="white"/>
<path d="M14.5659 24.5684C14.4912 24.5684 14.4187 24.6046 14.3734 24.6704L12.067 28.0892H11.9355L13.3855 21.7432L15.078 22.0037L16.639 25.3682L14.652 24.5843C14.6226 24.5729 14.5954 24.5684 14.5659 24.5684Z" fill="white"/>
<path d="M17.9828 19.3209C16.6506 17.4109 19.7182 17.3203 19.7182 17.3203C19.281 17.7417 18.8799 18.1405 19.0816 18.5913C19.3195 19.1238 20.0943 19.1102 20.0943 19.1102C20.0943 19.1102 18.8867 20.1954 17.9828 19.3209Z" fill="white"/>
<path d="M20.3569 16.6684C19.9582 17.1465 19.1176 17.7809 19.0497 18.2181C19.7384 14.4821 16.8905 15.2977 16.2675 13.5895C16.1429 13.2451 16.0273 12.8894 16.0137 12.5246C16.0024 12.2505 17.7039 9.64501 17.8625 9.41165C18.0573 9.12618 21.0706 13.2428 21.0706 13.2428C21.0683 13.2474 21.9247 14.7925 20.3569 16.6684Z" fill="white"/>
<path d="M4.71898 19.3209C6.05117 17.4109 2.98352 17.3203 2.98352 17.3203C3.42078 17.7417 3.8218 18.1405 3.62016 18.5913C3.38227 19.1238 2.60742 19.1102 2.60742 19.1102C2.60742 19.1102 3.815 20.1954 4.71898 19.3209Z" fill="white"/>
<path d="M2.34745 16.6704C2.7462 17.1484 3.58675 17.7828 3.65472 18.2201C2.96597 14.4841 5.81386 15.2997 6.43691 13.5914C6.56152 13.247 6.67706 12.8913 6.69066 12.5266C6.70198 12.2524 5.0005 9.64696 4.84191 9.4136C4.64933 9.12813 1.63605 13.247 1.63605 13.247C1.63831 13.2493 0.781906 14.7945 2.34745 16.6704Z" fill="white"/>
<path d="M17.5204 11.4365H5.13645C3.80199 11.4365 2.70996 12.5988 2.70996 14.0216C2.70996 15.4444 3.80199 16.6067 5.13645 16.6067H17.5181C18.8525 16.6067 19.9446 15.4421 19.9446 14.0216C19.9446 12.6011 18.8548 11.4365 17.5204 11.4365Z" fill="white"/>
<path d="M11.3278 2.51758C7.38559 2.51758 3.7334 6.7339 3.7334 12.8035C3.7334 18.8391 7.4966 21.823 11.3278 21.823C15.1589 21.823 18.9221 18.8391 18.9221 12.8035C18.9221 6.7339 15.27 2.51758 11.3278 2.51758Z" fill="white"/>
<path d="M9.38392 11.2874C9.17322 11.0087 8.68838 10.6055 7.74588 10.6055C6.80338 10.6055 6.31627 11.011 6.10783 11.2874C6.01494 11.4098 6.0376 11.5525 6.1033 11.6386C6.1622 11.7179 6.33892 11.7927 6.53377 11.727C6.72861 11.6612 7.10924 11.4641 7.74588 11.4596C8.38252 11.4641 8.76314 11.6612 8.95799 11.727C9.15283 11.7927 9.32955 11.7202 9.38845 11.6386C9.45416 11.5525 9.47681 11.4098 9.38392 11.2874ZM16.4413 11.2874C16.2306 11.0087 15.7458 10.6055 14.8033 10.6055C13.8608 10.6055 13.3737 11.011 13.1653 11.2874C13.0724 11.4098 13.095 11.5525 13.1607 11.6386C13.2196 11.7179 13.3963 11.7927 13.5912 11.727C13.786 11.6612 14.1667 11.4641 14.8033 11.4596C15.4399 11.4641 15.8206 11.6612 16.0154 11.727C16.2103 11.7927 16.387 11.7202 16.4459 11.6386C16.5093 11.5525 16.5342 11.4098 16.4413 11.2874Z" fill="white"/>
<path d="M7.74586 14.4906C8.36274 14.4906 8.86281 13.9733 8.86281 13.3352C8.86281 12.697 8.36274 12.1797 7.74586 12.1797C7.12898 12.1797 6.62891 12.697 6.62891 13.3352C6.62891 13.9733 7.12898 14.4906 7.74586 14.4906Z" fill="white"/>
<path d="M14.8005 14.4906C15.4174 14.4906 15.9175 13.9733 15.9175 13.3352C15.9175 12.697 15.4174 12.1797 14.8005 12.1797C14.1837 12.1797 13.6836 12.697 13.6836 13.3352C13.6836 13.9733 14.1837 14.4906 14.8005 14.4906Z" fill="white"/>
<path d="M12.2025 15.4293C12.1776 15.4202 12.1549 15.4134 12.13 15.4111H10.5259C10.501 15.4134 10.4761 15.4202 10.4534 15.4293C10.3084 15.4882 10.2291 15.6377 10.2971 15.7986C10.3651 15.9594 10.6845 16.408 11.328 16.408C11.9714 16.408 12.2909 15.9571 12.3588 15.7986C12.4268 15.64 12.3475 15.4882 12.2025 15.4293Z" fill="white"/>
<path d="M13.2611 17.2618C12.5383 17.69 10.173 17.69 9.45254 17.2618C9.03793 17.0148 8.61426 17.3932 8.78645 17.7693C8.95637 18.1386 10.2455 18.9972 11.3625 18.9972C12.4794 18.9972 13.7527 18.1386 13.9226 17.7693C14.0925 17.3909 13.6757 17.0148 13.2611 17.2618Z" fill="white"/>
<path d="M17.7146 4.54924L17.7576 3.93978C17.6738 3.92392 17.59 3.91033 17.5084 3.9058C17.3317 2.85682 16.1853 1.97096 15.0774 1.62658C12.08 0.697675 10.1293 1.73986 9.08028 2.29947C8.86278 2.41502 7.66652 3.15135 6.6334 2.48752C6.20066 2.20885 6.08965 1.35924 6.08965 1.35924C6.08965 1.35924 3.88066 2.08424 4.59887 4.08705C4.59887 4.08705 4.36777 4.08705 4.05059 4.15728V4.9208C4.27715 4.83017 4.52863 4.78486 4.77559 4.76447L2.82715 7.83892L3.46379 11.9669C3.32332 14.3503 4.0891 15.5058 4.0891 15.5058C4.0891 15.5058 5.0452 10.7661 4.95457 10.1408C4.95457 10.1408 6.82598 9.9233 8.82199 8.80408C10.17 8.04963 10.9766 7.68486 12.4923 7.35182C14.7987 6.84432 15.313 8.47783 15.313 8.47783C15.313 8.47783 17.4472 8.07682 18.0907 10.9791C18.3557 12.1731 18.469 14.1668 18.614 15.3812C18.6004 15.2747 19.3232 13.9516 19.5475 12.6307C19.9961 9.99127 18.7296 5.71377 17.7146 4.54924Z" fill="white"/>
<path d="M10.2724 1.73062C9.22796 2.07727 8.12007 3.17609 6.8128 2.59609C6.17616 2.31289 6.09233 1.39531 6.09007 1.36133C5.31296 2.31062 5.24499 4.34969 7.71452 4.28625C8.77936 4.25906 9.34577 3.27578 9.65843 2.45789C9.76944 2.16109 10.2248 1.84844 10.2724 1.73062Z" fill="white"/>
<path d="M14.9482 1.57474C16.6067 2.02333 17.4563 2.83443 17.7259 3.96044C17.8052 4.29122 17.9003 7.377 12.0097 3.86982C9.81884 2.56482 10.3626 1.69255 10.6209 1.60419C11.6042 1.26888 13.0904 1.07177 14.9482 1.57474Z" fill="white"/>
<path d="M2.71875 9.98242H1.8125C1.3118 9.98242 0.90625 9.57688 0.90625 9.07617V7.26367C0.90625 6.76297 1.3118 6.35742 1.8125 6.35742H2.71875C3.21945 6.35742 3.625 6.76297 3.625 7.26367V9.07617C3.625 9.57688 3.21945 9.98242 2.71875 9.98242ZM20.8438 9.98242H19.9375C19.4368 9.98242 19.0312 9.57688 19.0312 9.07617V7.26367C19.0312 6.76297 19.4368 6.35742 19.9375 6.35742H20.8438C21.3445 6.35742 21.75 6.76297 21.75 7.26367V9.07617C21.75 9.57688 21.3445 9.98242 20.8438 9.98242Z" fill="white"/>
<path d="M11.2375 7.44043C8.21742 7.44043 4.20047 8.8927 2.37891 9.92582V12.1643C4.08945 10.7075 7.54 9.56559 11.2375 9.56559C14.9758 9.56559 17.8101 10.9839 20.2592 12.1982C20.2705 11.7134 20.3408 9.88957 20.1029 9.30957C18.2791 8.25379 14.2938 7.44043 11.2375 7.44043Z" fill="white"/>
<path d="M20.3816 7.15753C20.3705 6.9149 20.3184 6.6759 20.2275 6.45066L18.4603 2.06667C18.3289 1.79933 18.0887 1.57277 17.7738 1.37792C17.7262 1.34847 17.6673 1.38699 17.6673 1.44363V3.49855C17.6673 3.71832 17.4906 3.89503 17.2754 3.89503H5.38086C5.16336 3.89503 4.98891 3.71832 4.98891 3.49855V1.40511C4.98891 1.36433 4.94813 1.33941 4.91641 1.3598C4.58563 1.55917 4.33414 1.79253 4.1982 2.06894L2.43102 6.45292C2.34039 6.67949 2.28828 6.91738 2.27695 7.1598L1.35938 12.7332C1.35938 12.7332 1.36391 12.7672 1.3775 12.8193C1.41148 12.9598 1.50664 13.2407 1.75586 13.3812C1.75586 13.3812 4.29562 8.99496 10.9498 8.49199C11.2013 8.47386 11.455 8.47386 11.7065 8.49199C18.3606 8.99496 20.9004 13.3812 20.9004 13.3812C21.1496 13.2407 21.2448 12.9598 21.2787 12.8193C21.2923 12.7672 21.2969 12.7332 21.2969 12.7332L20.3816 7.15753Z" fill="white"/>
<path d="M15.3132 6.36156C15.1886 6.36156 15.0867 6.28453 15.0867 6.18938V5.12453C15.0867 5.02938 15.1886 4.95234 15.3132 4.95234C15.4379 4.95234 15.5398 5.02938 15.5398 5.12453V6.18938C15.5398 6.28453 15.4379 6.36156 15.3132 6.36156ZM13.1994 6.7807C13.0748 6.7807 12.9729 6.70367 12.9729 6.60852V4.70539C12.9729 4.61023 13.0748 4.5332 13.1994 4.5332C13.324 4.5332 13.426 4.61023 13.426 4.70539V6.60852C13.426 6.70367 13.3263 6.7807 13.1994 6.7807ZM11.328 6.44086C11.2034 6.44086 11.1014 6.36383 11.1014 6.26867V5.04523C11.1014 4.95008 11.2034 4.87305 11.328 4.87305C11.4526 4.87305 11.5546 4.95008 11.5546 5.04523V6.26867C11.5546 6.36383 11.4526 6.44086 11.328 6.44086ZM7.34277 6.36156C7.21816 6.36156 7.11621 6.28453 7.11621 6.18938V5.12453C7.11621 5.02938 7.21816 4.95234 7.34277 4.95234C7.46738 4.95234 7.56934 5.02938 7.56934 5.12453V6.18938C7.56934 6.28453 7.46738 6.36156 7.34277 6.36156ZM9.4566 6.7807C9.33199 6.7807 9.23004 6.70367 9.23004 6.60852V4.70539C9.23004 4.61023 9.33199 4.5332 9.4566 4.5332C9.58121 4.5332 9.68316 4.61023 9.68316 4.70539V6.60852C9.68316 6.70367 9.58121 6.7807 9.4566 6.7807Z" fill="white"/>
<path d="M1.75629 13.3812C1.75629 13.3812 4.36855 8.82953 11.3286 8.46703C18.2886 8.82953 20.9008 13.3812 20.9008 13.3812C21.15 13.2407 21.2452 12.9598 21.2792 12.8193C20.6221 11.5279 18.4154 8.78875 13.021 7.66727C12.2416 7.50414 10.454 7.50414 9.67465 7.66727C4.2802 8.78875 2.0327 11.5279 1.37793 12.8193C1.41191 12.962 1.50707 13.243 1.75629 13.3812Z" fill="white"/>
</svg>
